<?xml version="1.0" encoding="UTF-8" standalone="no"?>
<!DOCTYPE svg PUBLIC "-//W3C//DTD SVG 1.1//EN" "http://www.w3.org/Graphics/SVG/1.1/DTD/svg11.dtd">
<svg width="100%" height="100%" viewBox="0 0 1056 992" version="1.1" xmlns="http://www.w3.org/2000/svg" xmlns:xlink="http://www.w3.org/1999/xlink" xml:space="preserve" xmlns:serif="http://www.serif.com/" style="fill-rule:evenodd;clip-rule:evenodd;stroke-linejoin:round;stroke-miterlimit:2;">
    <g id="Background" transform="matrix(1.03125,0,0,1.03125,0,0)">
        <path d="M745.549,68.047C751.366,68.441 752.455,68.567 755.436,69.722C759.518,71.305 761.654,70.05 765.49,71.535C769.808,73.206 770.025,72.344 774.422,73.765C780.442,75.71 780.505,75.484 786.413,77.742C791.876,79.83 791.957,79.573 797.361,81.825C799.722,82.809 802.847,83.725 805.639,85.195C806.707,85.757 821.366,92.406 828.772,97.05C832.195,99.197 832.276,99.033 835.667,101.23C837.987,102.733 838.806,102.934 841.782,105.075C846.18,108.241 846.286,108.068 850.675,111.25C879.782,132.351 895.265,153.396 905.373,167.589C908.564,172.07 918.72,188.509 922.645,197.432C923.698,199.827 926.162,204.736 927.625,208.447C928.793,211.412 928.907,211.345 929.917,214.352C930.965,217.47 932.168,219.228 933.131,222.617C934.559,227.642 935.045,227.48 936.216,232.568C937.189,236.795 937.783,236.631 938.881,242.422C939.993,248.285 940.82,248.425 941.356,252.522C942.194,258.933 942.05,258.957 942.993,262.411C944.194,266.811 944.751,274.418 944.829,275.47C945.447,283.91 946.58,286.181 946.559,305.5C946.561,330.833 946.564,356.167 946.566,381.5C946.597,424.5 946.628,467.5 946.658,510.5C946.654,538.833 946.65,567.167 946.647,595.5C946.647,663.497 946.515,666.334 946.229,672.487C946.173,673.687 946.127,673.671 945.203,687.474C944.5,697.958 943.13,697.919 941.711,709.537C941.179,713.894 940.154,715.146 939.73,717.544C939.032,721.495 939.22,721.538 938.116,724.368C936.704,727.99 937.005,730.316 935.586,733.533C934.302,736.446 934.365,736.447 933.471,739.491C932.6,742.456 931.973,743.014 930.181,748.381C928.706,752.799 923.406,765.207 918.278,774.373C915.775,778.845 908.876,792.425 892.076,813.177C885.333,821.504 877.199,829.339 875.282,831.277C874.447,832.121 873.475,833.104 864.329,841.308C863.378,842.161 848.599,854.301 839.52,859.532C835.998,861.562 834.723,862.891 827.232,867.053C817.54,872.439 817.455,872.253 809.713,875.982C793.712,883.689 790.061,883.847 780.518,887.548C779.974,887.759 779.948,887.646 773.529,889.601C768.07,891.263 767.92,890.725 762.565,892.72C759.493,893.864 757.648,893.142 752.5,894.502C748.04,895.68 748.054,895.742 742.477,896.326C732.041,897.419 725.639,898.845 708.5,898.696C703.78,898.654 703.784,899.173 649.498,898.747C646.328,898.723 614.97,898.839 586.5,898.793C470.821,898.608 326.337,899.168 314.509,898.342C311.959,898.164 311.986,898.105 309.485,897.662C304.881,896.846 301.586,898.129 291.508,895.454C287.75,894.457 285.589,895.117 282.537,894.342C275.585,892.578 275.554,892.785 268.569,891.197C263.553,890.056 263.088,889.339 259.514,888.453C254.9,887.31 254.971,887.146 250.523,885.438C247.046,884.102 246.369,884.85 234.544,879.403C234.527,879.395 230.121,877.944 222.669,874.139C212.772,869.085 212.69,869.249 203.459,863.568C202.784,863.153 188.519,855.358 170.077,838.996C160.622,830.608 150.598,821.432 135.222,800.703C122.711,783.837 116.167,770.277 111.05,759.703C110.707,758.994 110.844,758.938 107.142,750.665C106.863,750.039 107.038,749.979 104.047,742.678C103.855,742.208 104.054,742.148 102.106,736.635C101.203,734.082 100.88,734.186 100.481,731.505C99.977,728.125 99.182,728.341 97.874,722.406C97.22,719.433 97.178,719.461 96.294,716.561C95.799,714.938 94.361,708.281 94.205,707.558C93.125,702.56 93.781,702.453 92.553,697.49C91.09,691.576 91.059,691.578 90.906,685.467C90.78,680.383 89.432,670.663 89.184,664.512C88.93,658.223 89.12,424.751 88.977,411.499C88.934,407.579 88.994,407.581 89.105,362.499C89.119,357.129 88.992,314.902 89.256,299.497C89.405,290.82 90.035,288.118 90.982,275.548C91.632,266.917 92.569,267.068 94.08,256.437C95.162,248.823 95.526,248.916 97.409,241.477C97.652,240.518 97.901,240.596 100.813,229.585C101.6,226.608 102.106,226.79 103.356,222.454C104.544,218.334 105.065,218.533 106.362,214.45C106.502,214.012 106.265,213.928 112.469,200.485C116.019,192.793 124.688,176.432 136.649,160.605C142.669,152.64 142.559,152.572 148.956,144.906C149.006,144.846 158.517,134.271 166.826,126.844C178.083,116.782 187.299,110.352 189.174,109.044C190.889,107.848 202.236,99.931 211.248,95.048C214.411,93.335 214.257,93.085 217.565,91.634C218.548,91.203 218.464,91.045 229.641,85.81C233.064,84.207 236.83,82.946 241.334,81.081C241.828,80.876 241.861,80.99 247.595,78.761C249.09,78.18 251.747,77.565 253.627,76.856C257.481,75.402 257.531,75.629 261.522,74.579C262.761,74.254 263.805,73.37 266.589,72.92C270.087,72.354 270.11,72.496 273.456,71.34C276.728,70.21 278.429,70.947 285.389,69.027C292.259,67.132 292.421,68.133 299.564,66.955C314.79,64.443 323.551,64.988 375.501,64.895C418.5,64.9 504.5,64.91 504.5,64.91C504.5,64.91 698.378,64.836 712.493,64.969C714.014,64.984 716.296,65.005 731.472,65.968C738.59,66.42 738.502,67.012 745.549,68.047Z" style="fill:rgb(66,180,186);"/>
        <path d="M459.559,538.182L428.606,485.448L426.667,485.434L426.667,721.969L305.493,721.984L305.428,239.526L366.061,239.521L426.696,239.515L426.659,421.584L564.906,421.624L599.273,474.302L601.212,474.316L601.212,239.515L722.424,239.515L722.424,721.939L601.212,721.939L601.212,538.182L459.559,538.182Z" style="fill:rgb(253,254,253);"/>
    </g>
</svg>
